<?xml version="1.0" encoding="utf-8"?>
<!-- Generator: Adobe Illustrator 19.2.1, SVG Export Plug-In . SVG Version: 6.00 Build 0)  -->
<svg version="1.0" id="Layer_1" xmlns="http://www.w3.org/2000/svg" xmlns:xlink="http://www.w3.org/1999/xlink" x="0px" y="0px"
	 width="1400px" height="980px" viewBox="0 0 1400 980" enable-background="new 0 0 1400 980" xml:space="preserve">
<rect x="-0.2" fill="#333333" width="1400.4" height="980"/>
<polygon fill="#363636" points="-0.2,395.9 1400.2,432.7 1400.1,452 0,582 "/>
<polygon fill="#363636" points="0,135.4 1103,395.9 0,244.3 "/>
<polygon fill="#242424" points="0.1,942 891.1,662.8 45,980 0,980 "/>
<polygon fill="#CCCCCC" points="1400,457.8 0,728.9 0,756 1400,469.8 "/>
<polygon fill="#F7931E" points="1400.4,404.8 101,0 0,0 0,62 1400.4,410.7 "/>
<polygon fill="#4D4D4D" points="0,820.7 1400,450.8 1400,464 0,848.5 "/>
<path id="path3335" fill="#DCEBF2" d="M1400.4,405L817.2,236c-54.3-16.3-207.3-22.9-295.3,18.5c-102,48-188.1,121.8-241,198.7
	C227.8,530,170.9,636,166.9,667.8c-4,31.8,18,84.5,64.9,99.3c50.3,15.9,164.1,20.6,348.3-6.6c117-17.3,819.8-278.1,819.8-278.1
	L1400.4,405L1400.4,405z"/>
<path id="path4309" fill="#002454" d="M818.2,371c-72.7,0.9-183,69.8-267.4,147c-3.8,3.5-2.7,6.8,3.4,5.6
	c32.2-6.5,121.3-20.2,160.3-22.7c57.9-3.7,181.3-12.4,307.6-21.7v-88.5c-94.2-10.2-175.1-18.5-197-19.6
	C822.8,371,820.5,370.9,818.2,371L818.2,371z M1069.8,395.9v79.7c97.8-7.2,181.4-13.3,244-18V423
	C1249,415.8,1163.4,406.1,1069.8,395.9L1069.8,395.9z M1320.5,423.8v33.3c13-1,15.3-1.1,25.9-1.9v-28.4
	C1335.8,425.6,1333,425.2,1320.5,423.8L1320.5,423.8z M1359,428.1v26.1c18.1-1.4,40.2-3,40.2-3v-18.5
	C1399.2,432.7,1377.2,430.2,1359,428.1L1359,428.1z"/>
<path id="path2283" fill="#FF1A00" d="M1397.3,459.6c-5,0.1-9,0.6-10.4,0.6c-5.2,0.2-9.9,2.7-11.1,3.8c-2.3,2.3-0.5,3.2,9.3,2.8
	c3.8-0.1,9.6-1.6,12.2-1.7C1397.2,462.3,1397.3,462.5,1397.3,459.6L1397.3,459.6z M1368.7,463.3c-16.3,0.6-32.3,2.3-48.3,4.2v9.4
	c13.6-2.4,28.4-5.1,40.8-6.8C1368.8,468.4,1372.8,463.1,1368.7,463.3L1368.7,463.3z M1313.8,468.4c-13.4,1.7-26.9,3.5-40.4,5
	c-7.1,0.9-30,3.8-50.9,6.5c-37.2,4.7-42,6.1-39.9,11.9c0.5,1.4,0.9,3.8,0.9,5.4c0,3.6,4,3.2,57.5-6.8c21.9-4.1,31.2-5.6,45.3-7.5
	c6-0.8,16.2-2.7,27.6-4.8V468.4L1313.8,468.4z M1166.3,488.2c-10.4,0-53.8,4.5-125.6,13c-8.7,1-51.6,6.1-95.5,11.2
	c-43.8,5.1-92.7,11-108.5,13c-15.8,2.1-49.2,6.3-74.2,9.4c-84.6,10.5-261.7,34.1-269.8,36c-3.2,0.7-30.3,31.5-32,36.4
	c-0.3,1,2.1,1.7,5.6,1.7c6.5,0,151.8-17,214.7-25.1c19.9-2.6,44.9-5.5,55.6-6.5c29.1-2.9,42.8-4.8,71.4-10
	c14.3-2.6,40.6-7.2,58.4-10.3c100.4-17.1,292.6-51.2,298.8-53c3.1-0.9,5.6-12.1,3.5-15.5C1168.6,488.3,1167.8,488.2,1166.3,488.2
	L1166.3,488.2z"/>
<path fill="#00184A" d="M668.8,296.3L668.8,296.3c10.3-8.4,8-19.9-9.9-32.5c-9.9-7-61.9-19.9-111.1-19.5c-9.1,3-17.8,6.4-25.9,10.3
	c-102,48-188.1,121.8-241,198.7c-3.1,4.5-6.2,9.1-9.3,13.8c9.9,5.7,28.5,12.2,58.3,14c42.4,2.6,125.2-17.2,153.6-30.5
	C511.9,437.3,653.7,308.6,668.8,296.3z"/>
<path fill="#9AEBF2" d="M399.4,778.1c21.1-28.1,17.5-99.2,12.2-116.6c-5.2-17-21.5-31.8-56.7-37c-33.6-4.9-157.9-22.4-161.9-22.9
	c-14.6,29.4-24.5,53.6-26.1,66.2c-4,31.8,18,84.5,64.9,99.3c31,9.8,86.2,15.3,167.1,11.8L399.4,778.1z"/>
<path id="path11142" fill="#F7931E" d="M1353,426.5c-1.9,0-3.5,5.4-3.5,12.1v6c0,6.7,1.5,12.1,3.5,12.1c1.9,0,3.5-5.4,3.5-12.1v-6
	C1356.4,431.9,1354.9,426.5,1353,426.5z"/>
<path fill="#29ABE2" d="M1400,476.2c-11.8,3.5-229.4,68.5-380.6,113.2c-155.5,45.9-456.1,114.3-605,126.4c0,0-151.1,3.6-216.7,0
	c-8.1-0.4-15.6-1.2-22.5-2.1c10.1,22.9,29.1,44.6,56.6,53.3c50.3,15.9,164.1,20.6,348.3-6.6c117-17.3,819.8-278.1,819.8-278.1
	L1400,476.2z"/>
<polygon fill="#29ABE2" points="259.1,505.9 234.6,548.6 318.6,559.9 340.5,515.6 "/>
<polygon fill="#9AEBF2" points="348.6,517 327.7,561.6 340.5,563.8 361.7,517 "/>
<polygon fill="#9AEBF2" points="368.8,517 346.7,565 359.6,567.1 381.9,517 "/>
<path fill="#FF1A00" d="M723,223.8c0,0-6.8-25.1,51.5-25.1c48.5,0,319.5,91.8,408.6,122.4c18.5,6.3,34.5,18.3,45.8,34.2l0,0
	L825.6,239c-15.5-4.5-31.4-7.6-47.5-9.3L723,223.8z"/>
<path fill="#FF1A00" d="M1313.8,379.9c0,0,0.8-4.9,9.8-3.4c9,1.5,75.7,24.7,75.7,24.7l1.2,3.9L1313.8,379.9z"/>
<polygon fill="#1A1A1A" points="208,979.9 1400,500.8 1400,514 270.8,980 "/>
<polygon fill="#CCCCCC" points="512.6,980 1400,532.9 1400,549 595,980 "/>
<polygon fill="#517585" points="1399.2,366.4 381.7,0 503,0 1400.4,355.3 "/>
<path fill="#F7931E" d="M1047.6,383c-6.6,0-11.9,18.4-11.9,41.4v20.6c0,22.9,5.3,41.4,11.9,41.4s11.9-18.4,11.9-41.4v-20.6
	C1059.5,401.4,1054.2,383,1047.6,383z"/>
<polygon fill="#9AEBF2" points="1000.4,704 344.7,980 416,980 "/>
<polygon fill="#4D4D4D" points="1400.2,567.1 722.7,980 934,980 1400.4,594.9 "/>
<polygon fill="#1A1A1A" points="1400,320 661,0 833,0 1400,302 "/>
<polygon fill="#FF1A00" points="975.8,0 1400.4,277 1015,0 "/>
<polygon fill="#F7931E" points="0,277 327.7,338 0,320 "/>
<polygon fill="#F7931E" points="1035.7,980 1359,677.5 1103,980 "/>
<polygon fill="#F7931E" points="1113,0 1248,108 1157,0 "/>
<polygon fill="#363636" points="804,980 1182.2,740.4 861,980 "/>
<polygon fill="#1A1A1A" points="0,888 317,804 0,914 "/>
<polygon fill="#9AEBF2" points="291,0 767,171.3 208,0 "/>
<path fill="#9AEBF2" d="M815.4,302.4l458.7,90.1c5,1,8.1-5.2,4.3-8.6l0,0c-0.6-0.5-1.3-0.9-2.1-1.1L791.5,256.5
	c-4.5-1.2-8.1,4-5.3,7.8l26.2,36.1C813.1,301.4,814.2,302.1,815.4,302.4z"/>
<g>
	<path fill="#00184A" d="M1127,471.5c2.3-0.2,4.7-0.3,7-0.5v-68c-2.3-0.3-4.7-0.5-7-0.8V471.5z"/>
	<path fill="#00184A" d="M1185,408.6c-2-0.2-4-0.4-6-0.7v59.7c2-0.1,4-0.3,6-0.4V408.6z"/>
	<path fill="#00184A" d="M1345,426.6c-1.1-0.1-2.1-0.2-3-0.4v29.2c0.9-0.1,1.9-0.1,3-0.2V426.6z"/>
	<path fill="#00184A" d="M1221,412.6c-2-0.2-4-0.4-6-0.7v53c2-0.1,4-0.3,6-0.4V412.6z"/>
	<path fill="#00184A" d="M1330,456.4c1.4-0.1,2.7-0.2,4-0.3v-30.8c-1.3-0.1-2.6-0.3-4-0.4V456.4z"/>
	<path fill="#00184A" d="M937,485.4c2.3-0.2,4.7-0.3,7-0.5V382.4c-2.4-0.2-4.7-0.5-7-0.7V485.4z"/>
	<path fill="#00184A" d="M804,494.8c2.3-0.2,4.6-0.3,7-0.5V371.3c-2.3,0.2-4.6,0.4-7,0.7V494.8z"/>
	<path fill="#00184A" d="M1250,415.9c-2-0.2-4-0.4-6-0.7v47.6c2-0.1,4-0.3,6-0.4V415.9z"/>
	<path fill="#00184A" d="M1309,458c1.7-0.1,3.3-0.2,5-0.4V423c-1.7-0.2-3.3-0.4-5-0.6V458z"/>
	<path fill="#00184A" d="M1272,418.3c-1.7-0.2-3.3-0.4-5-0.6v43.3c1.7-0.1,3.3-0.2,5-0.4V418.3z"/>
	<path fill="#00184A" d="M1291,420.5c-1.7-0.2-3.3-0.4-5-0.6v39.8c1.7-0.1,3.3-0.2,5-0.4V420.5z"/>
</g>
<path fill="#002454" d="M434.9,351c44.8-55,125.7-106.5,125.7-106.5l-12.8-0.2c-9.1,3-17.8,6.4-25.9,10.3
	c-102,48-188.1,121.8-241,198.7c-3.1,4.5-6.2,9.1-9.3,13.8l92.8-16.2C364.3,450.8,390.1,406,434.9,351z"/>
<path fill="#0092DD" d="M1399.9,480.1c-51.7,17.1-699.9,235.6-898.1,260.3c-164.8,20.5-269.5,9.5-307.9,2.1
	c10,10.9,22.6,19.8,38,24.6c50.3,15.9,164.1,20.6,348.3-6.6c117-17.3,819.8-278.1,819.8-278.1L1399.9,480.1z"/>
<path fill="#0052A2" d="M1311,418.8l0.5,66.7c0.1,10.5-1.6,23.4-3.9,30.8c4.3-1.6,8.6-3.1,12.7-4.6c1.7-8.5,2.6-18.5,2.5-26.3
	l-0.5-66.7c0-17.8-4.7-30.5-10.8-39.5l-22.1-6.4C1298.7,379.2,1311,391.7,1311,418.8z"/>
</svg>
